General

Complete name                    : Sleeping Beauty[2011]BRrip[Ac3-5.1]-=[CaLvIn]=-
IMDB Link                        : http://www.imdb.com/title/tt1588398
Format                           : AVI
Format/Info                      : Audio Video Interleave
File size                        : 699 MiB
Duration                         : 1h 41mn
Overall bit rate                 : 961 Kbps


Video

ID                               : 0
Format                           : MPEG-4 Visual
Format profile                   : Advanced Simple@L5
Format settings, BVOP            : 2
Format settings, QPel            : No
Format settings, GMC             : No warppoints
Format settings, Matrix          : Default (H.263)
Codec ID                         : XVID
Codec ID/Hint                    : XviD
Duration                         : 1h 41mn
Bit rate                         : 760 Kbps
Width                            : 720 pixels
Height                           : 384 pixels
Display aspect ratio             : 16:9
Frame rate                       : 23.976 fps
Color space                      : YUV
Chroma subsampling               : 4:2:0
Bit depth                        : 8 bits
Scan type                        : Progressive
Compression mode                 : Lossy
Bits/(Pixel*Frame)               : 0.115
Stream size                      : 553 MiB (79%)
Writing library                  : XviD 1.2.1 (UTC 2008-12-04)

Audio

ID                               : 1
Format                           : AC-3
Format/Info                      : Audio Coding 3
Mode extension                   : CM (complete main)
Codec ID                         : 2000
Duration                         : 1h 41mn
Bit rate mode                    : Constant
Bit rate                         : 192 Kbps
Channel(s)                       : 6 channels
Channel positions                : Front: L C R, Side: L R, LFE
Sampling rate                    : 48.0 KHz
Bit depth                        : 16 bits
Compression mode                 : Lossy
Stream size                      : 140 MiB (20%)
Alignment                        : Split accross interleaves
Interleave, duration             : 42 ms (1.00 video frame)
Interleave, preload duration     : 500 ms

Screens
 
http://img155.imageshack.us/img155/5623/92881201.png 
http://img515.imageshack.us/img515/2900/43199975.png 
http://img36.imageshack.us/img36/8199/22567121.png 
http://img600.imageshack.us/img600/1121/63211454.png 
http://img831.imageshack.us/img831/2355/15801299.png 
http://img339.imageshack.us/img339/700/10599753.png 
http://img607.imageshack.us/img607/5420/89166251.png 
http://img862.imageshack.us/img862/608/14841946.png 
http://img842.imageshack.us/img842/4265/72451201.png 
http://img831.imageshack.us/img831/3708/72294192.png